<?xml version="1.0"?>
<!DOCTYPE svg PUBLIC "-//W3C//DTD SVG 1.1//EN" "http://www.w3.org/Graphics/SVG/1.1/DTD/svg11.dtd">
<svg width="183.6mm" height="83.6mm" viewBox="0 0 183.6 83.6" xmlns="http://www.w3.org/2000/svg" version="1.1">
<g id="_" transform="translate(1.8000,81.8000) scale(1,-1)">
<title>0</title>
</g>
<g id="Line" transform="translate(1.8000,81.8000) scale(1,-1)">
<path id="Line_nwe0000" d="M 35.7 47.0 L 60.3 47.0 " stroke="#000000" stroke-width="0.35 px" style="stroke-width:0.35;stroke-miterlimit:4;stroke-dasharray:none;fill:none;fill-rule: evenodd "/>
<title>Line</title>
</g>
<g id="Line001" transform="translate(1.8000,81.8000) scale(1,-1)">
<path id="Line001_nwe0000" d="M 32.5 36.2 L 32.5 43.8 " stroke="#000000" stroke-width="0.35 px" style="stroke-width:0.35;stroke-miterlimit:4;stroke-dasharray:none;fill:none;fill-rule: evenodd "/>
<title>Line001</title>
</g>
<g id="Line002" transform="translate(1.8000,81.8000) scale(1,-1)">
<path id="Line002_nwe0000" d="M 60.3 33.0 L 35.7 33.0 " stroke="#000000" stroke-width="0.35 px" style="stroke-width:0.35;stroke-miterlimit:4;stroke-dasharray:none;fill:none;fill-rule: evenodd "/>
<title>Line002</title>
</g>
<g id="Line003" transform="translate(1.8000,81.8000) scale(1,-1)">
<path id="Line003_nwe0000" d="M 63.5 43.8 L 63.5 36.2 " stroke="#000000" stroke-width="0.35 px" style="stroke-width:0.35;stroke-miterlimit:4;stroke-dasharray:none;fill:none;fill-rule: evenodd "/>
<title>Line003</title>
</g>
<g id="Line004" transform="translate(1.8000,81.8000) scale(1,-1)">
<path id="Line004_nwe0000" d="M 116.5 36.2 L 116.5 43.8 " stroke="#000000" stroke-width="0.35 px" style="stroke-width:0.35;stroke-miterlimit:4;stroke-dasharray:none;fill:none;fill-rule: evenodd "/>
<title>Line004</title>
</g>
<g id="Line005" transform="translate(1.8000,81.8000) scale(1,-1)">
<path id="Line005_nwe0000" d="M 144.3 33.0 L 119.7 33.0 " stroke="#000000" stroke-width="0.35 px" style="stroke-width:0.35;stroke-miterlimit:4;stroke-dasharray:none;fill:none;fill-rule: evenodd "/>
<title>Line005</title>
</g>
<g id="Line006" transform="translate(1.8000,81.8000) scale(1,-1)">
<path id="Line006_nwe0000" d="M 147.5 43.8 L 147.5 36.2 " stroke="#000000" stroke-width="0.35 px" style="stroke-width:0.35;stroke-miterlimit:4;stroke-dasharray:none;fill:none;fill-rule: evenodd "/>
<title>Line006</title>
</g>
<g id="Line007" transform="translate(1.8000,81.8000) scale(1,-1)">
<path id="Line007_nwe0000" d="M 119.7 47.0 L 144.3 47.0 " stroke="#000000" stroke-width="0.35 px" style="stroke-width:0.35;stroke-miterlimit:4;stroke-dasharray:none;fill:none;fill-rule: evenodd "/>
<title>Line007</title>
</g>
<g id="Line011" transform="translate(1.8000,81.8000) scale(1,-1)">
<path id="Line011_nwe0000" d="M 46.4 47.1 L 49.6 47.1 " stroke="#000000" stroke-width="0.35 px" style="stroke-width:0.35;stroke-miterlimit:4;stroke-dasharray:none;fill:none;fill-rule: evenodd "/>
<title>Line011</title>
</g>
<g id="Line009" transform="translate(1.8000,81.8000) scale(1,-1)">
<path id="Line009_nwe0000" d="M 49.6 67.1 L 46.4 67.1 " stroke="#000000" stroke-width="0.35 px" style="stroke-width:0.35;stroke-miterlimit:4;stroke-dasharray:none;fill:none;fill-rule: evenodd "/>
<title>Line009</title>
</g>
<g id="Line010" transform="translate(1.8000,81.8000) scale(1,-1)">
<path id="Line010_nwe0000" d="M 46.4 67.1 L 46.4 47.1 " stroke="#000000" stroke-width="0.35 px" style="stroke-width:0.35;stroke-miterlimit:4;stroke-dasharray:none;fill:none;fill-rule: evenodd "/>
<title>Line010</title>
</g>
<g id="Line008" transform="translate(1.8000,81.8000) scale(1,-1)">
<path id="Line008_nwe0000" d="M 49.6 47.1 L 49.6 67.1 " stroke="#000000" stroke-width="0.35 px" style="stroke-width:0.35;stroke-miterlimit:4;stroke-dasharray:none;fill:none;fill-rule: evenodd "/>
<title>Line008</title>
</g>
<g id="Line012" transform="translate(1.8000,81.8000) scale(1,-1)">
<path id="Line012_nwe0000" d="M 49.6 12.9 L 49.6 32.9 " stroke="#000000" stroke-width="0.35 px" style="stroke-width:0.35;stroke-miterlimit:4;stroke-dasharray:none;fill:none;fill-rule: evenodd "/>
<title>Line012</title>
</g>
<g id="Line013" transform="translate(1.8000,81.8000) scale(1,-1)">
<path id="Line013_nwe0000" d="M 49.6 32.9 L 46.4 32.9 " stroke="#000000" stroke-width="0.35 px" style="stroke-width:0.35;stroke-miterlimit:4;stroke-dasharray:none;fill:none;fill-rule: evenodd "/>
<title>Line013</title>
</g>
<g id="Line014" transform="translate(1.8000,81.8000) scale(1,-1)">
<path id="Line014_nwe0000" d="M 46.4 32.9 L 46.4 12.9 " stroke="#000000" stroke-width="0.35 px" style="stroke-width:0.35;stroke-miterlimit:4;stroke-dasharray:none;fill:none;fill-rule: evenodd "/>
<title>Line014</title>
</g>
<g id="Line017" transform="translate(1.8000,81.8000) scale(1,-1)">
<path id="Line017_nwe0000" d="M 130.4 12.9 L 133.6 12.9 " stroke="#000000" stroke-width="0.35 px" style="stroke-width:0.35;stroke-miterlimit:4;stroke-dasharray:none;fill:none;fill-rule: evenodd "/>
<title>Line017</title>
</g>
<g id="Line016" transform="translate(1.8000,81.8000) scale(1,-1)">
<path id="Line016_nwe0000" d="M 130.4 32.9 L 130.4 12.9 " stroke="#000000" stroke-width="0.35 px" style="stroke-width:0.35;stroke-miterlimit:4;stroke-dasharray:none;fill:none;fill-rule: evenodd "/>
<title>Line016</title>
</g>
<g id="Line015" transform="translate(1.8000,81.8000) scale(1,-1)">
<path id="Line015_nwe0000" d="M 46.4 12.9 L 49.6 12.9 " stroke="#000000" stroke-width="0.35 px" style="stroke-width:0.35;stroke-miterlimit:4;stroke-dasharray:none;fill:none;fill-rule: evenodd "/>
<title>Line015</title>
</g>
<g id="Line018" transform="translate(1.8000,81.8000) scale(1,-1)">
<path id="Line018_nwe0000" d="M 133.6 12.9 L 133.6 32.9 " stroke="#000000" stroke-width="0.35 px" style="stroke-width:0.35;stroke-miterlimit:4;stroke-dasharray:none;fill:none;fill-rule: evenodd "/>
<title>Line018</title>
</g>
<g id="Line020" transform="translate(1.8000,81.8000) scale(1,-1)">
<path id="Line020_nwe0000" d="M 130.4 67.1 L 130.4 47.1 " stroke="#000000" stroke-width="0.35 px" style="stroke-width:0.35;stroke-miterlimit:4;stroke-dasharray:none;fill:none;fill-rule: evenodd "/>
<title>Line020</title>
</g>
<g id="Line019" transform="translate(1.8000,81.8000) scale(1,-1)">
<path id="Line019_nwe0000" d="M 133.6 32.9 L 130.4 32.9 " stroke="#000000" stroke-width="0.35 px" style="stroke-width:0.35;stroke-miterlimit:4;stroke-dasharray:none;fill:none;fill-rule: evenodd "/>
<title>Line019</title>
</g>
<g id="Line021" transform="translate(1.8000,81.8000) scale(1,-1)">
<path id="Line021_nwe0000" d="M 130.4 47.1 L 133.6 47.1 " stroke="#000000" stroke-width="0.35 px" style="stroke-width:0.35;stroke-miterlimit:4;stroke-dasharray:none;fill:none;fill-rule: evenodd "/>
<title>Line021</title>
</g>
<g id="Line027" transform="translate(1.8000,81.8000) scale(1,-1)">
<path id="Line027_nwe0000" d="M 0.0 0.0 L 0.0 80.0 " stroke="#000000" stroke-width="0.35 px" style="stroke-width:0.35;stroke-miterlimit:4;stroke-dasharray:none;fill:none;fill-rule: evenodd "/>
<title>Line027</title>
</g>
<g id="Arc" transform="translate(1.8000,81.8000) scale(1,-1)">
<path id="Arc_nwe0000" d="M 63.5 43.8 A 3.2 3.2 0 0 0 60.3 47.0 " stroke="#000000" stroke-width="0.35 px" style="stroke-width:0.35;stroke-miterlimit:4;stroke-dasharray:none;fill:none;fill-rule: evenodd "/>
<title>Arc</title>
</g>
<g id="Line026" transform="translate(1.8000,81.8000) scale(1,-1)">
<path id="Line026_nwe0000" d="M 0.0 80.0 L 180.0 80.0 " stroke="#000000" stroke-width="0.35 px" style="stroke-width:0.35;stroke-miterlimit:4;stroke-dasharray:none;fill:none;fill-rule: evenodd "/>
<title>Line026</title>
</g>
<g id="Line022" transform="translate(1.8000,81.8000) scale(1,-1)">
<path id="Line022_nwe0000" d="M 133.6 47.1 L 133.6 67.1 " stroke="#000000" stroke-width="0.35 px" style="stroke-width:0.35;stroke-miterlimit:4;stroke-dasharray:none;fill:none;fill-rule: evenodd "/>
<title>Line022</title>
</g>
<g id="Line023" transform="translate(1.8000,81.8000) scale(1,-1)">
<path id="Line023_nwe0000" d="M 133.6 67.1 L 130.4 67.1 " stroke="#000000" stroke-width="0.35 px" style="stroke-width:0.35;stroke-miterlimit:4;stroke-dasharray:none;fill:none;fill-rule: evenodd "/>
<title>Line023</title>
</g>
<g id="Line025" transform="translate(1.8000,81.8000) scale(1,-1)">
<path id="Line025_nwe0000" d="M 180.0 80.0 L 180.0 0.0 " stroke="#000000" stroke-width="0.35 px" style="stroke-width:0.35;stroke-miterlimit:4;stroke-dasharray:none;fill:none;fill-rule: evenodd "/>
<title>Line025</title>
</g>
<g id="Line024" transform="translate(1.8000,81.8000) scale(1,-1)">
<path id="Line024_nwe0000" d="M 180.0 0.0 L 0.0 0.0 " stroke="#000000" stroke-width="0.35 px" style="stroke-width:0.35;stroke-miterlimit:4;stroke-dasharray:none;fill:none;fill-rule: evenodd "/>
<title>Line024</title>
</g>
<g id="Arc002" transform="translate(1.8000,81.8000) scale(1,-1)">
<path id="Arc002_nwe0000" d="M 32.5 36.2 A 3.2 3.2 0 0 0 35.7 33.0 " stroke="#000000" stroke-width="0.35 px" style="stroke-width:0.35;stroke-miterlimit:4;stroke-dasharray:none;fill:none;fill-rule: evenodd "/>
<title>Arc002</title>
</g>
<g id="Arc001" transform="translate(1.8000,81.8000) scale(1,-1)">
<path id="Arc001_nwe0000" d="M 35.7 47.0 A 3.2 3.2 0 0 0 32.5 43.8 " stroke="#000000" stroke-width="0.35 px" style="stroke-width:0.35;stroke-miterlimit:4;stroke-dasharray:none;fill:none;fill-rule: evenodd "/>
<title>Arc001</title>
</g>
<g id="Arc003" transform="translate(1.8000,81.8000) scale(1,-1)">
<path id="Arc003_nwe0000" d="M 60.3 33.0 A 3.2 3.2 0 0 0 63.5 36.2 " stroke="#000000" stroke-width="0.35 px" style="stroke-width:0.35;stroke-miterlimit:4;stroke-dasharray:none;fill:none;fill-rule: evenodd "/>
<title>Arc003</title>
</g>
<g id="Arc005" transform="translate(1.8000,81.8000) scale(1,-1)">
<path id="Arc005_nwe0000" d="M 116.5 36.2 A 3.2 3.2 0 0 0 119.7 33.0 " stroke="#000000" stroke-width="0.35 px" style="stroke-width:0.35;stroke-miterlimit:4;stroke-dasharray:none;fill:none;fill-rule: evenodd "/>
<title>Arc005</title>
</g>
<g id="Arc004" transform="translate(1.8000,81.8000) scale(1,-1)">
<path id="Arc004_nwe0000" d="M 119.7 47.0 A 3.2 3.2 0 0 0 116.5 43.8 " stroke="#000000" stroke-width="0.35 px" style="stroke-width:0.35;stroke-miterlimit:4;stroke-dasharray:none;fill:none;fill-rule: evenodd "/>
<title>Arc004</title>
</g>
<g id="Arc006" transform="translate(1.8000,81.8000) scale(1,-1)">
<path id="Arc006_nwe0000" d="M 144.3 33.0 A 3.2 3.2 0 0 0 147.5 36.2 " stroke="#000000" stroke-width="0.35 px" style="stroke-width:0.35;stroke-miterlimit:4;stroke-dasharray:none;fill:none;fill-rule: evenodd "/>
<title>Arc006</title>
</g>
<g id="Circle004" transform="translate(1.8000,81.8000) scale(1,-1)">
<circle cx="90.0" cy="10.0" r="1.65" stroke="#000000" stroke-width="0.35 px" style="stroke-width:0.35;stroke-miterlimit:4;stroke-dasharray:none;fill:none"/>
<title>Circle004</title>
</g>
<g id="Circle005" transform="translate(1.8000,81.8000) scale(1,-1)">
<circle cx="70.0" cy="10.0" r="1.65" stroke="#000000" stroke-width="0.35 px" style="stroke-width:0.35;stroke-miterlimit:4;stroke-dasharray:none;fill:none"/>
<title>Circle005</title>
</g>
<g id="Circle" transform="translate(1.8000,81.8000) scale(1,-1)">
<circle cx="18.0" cy="24.0" r="4.0" stroke="#000000" stroke-width="0.35 px" style="stroke-width:0.35;stroke-miterlimit:4;stroke-dasharray:none;fill:none"/>
<title>Circle</title>
</g>
<g id="Circle001" transform="translate(1.8000,81.8000) scale(1,-1)">
<circle cx="162.0" cy="24.0" r="4.0" stroke="#000000" stroke-width="0.35 px" style="stroke-width:0.35;stroke-miterlimit:4;stroke-dasharray:none;fill:none"/>
<title>Circle001</title>
</g>
<g id="Arc007" transform="translate(1.8000,81.8000) scale(1,-1)">
<path id="Arc007_nwe0000" d="M 147.5 43.8 A 3.2 3.2 0 0 0 144.3 47.0 " stroke="#000000" stroke-width="0.35 px" style="stroke-width:0.35;stroke-miterlimit:4;stroke-dasharray:none;fill:none;fill-rule: evenodd "/>
<title>Arc007</title>
</g>
<g id="Circle003" transform="translate(1.8000,81.8000) scale(1,-1)">
<circle cx="162.0" cy="56.0" r="7.0" stroke="#000000" stroke-width="0.35 px" style="stroke-width:0.35;stroke-miterlimit:4;stroke-dasharray:none;fill:none"/>
<title>Circle003</title>
</g>
<g id="Circle002" transform="translate(1.8000,81.8000) scale(1,-1)">
<circle cx="18.0" cy="56.0" r="7.0" stroke="#000000" stroke-width="0.35 px" style="stroke-width:0.35;stroke-miterlimit:4;stroke-dasharray:none;fill:none"/>
<title>Circle002</title>
</g>
<g id="Circle007" transform="translate(1.8000,81.8000) scale(1,-1)">
<circle cx="30.0" cy="10.0" r="1.65" stroke="#000000" stroke-width="0.35 px" style="stroke-width:0.35;stroke-miterlimit:4;stroke-dasharray:none;fill:none"/>
<title>Circle007</title>
</g>
<g id="Circle008" transform="translate(1.8000,81.8000) scale(1,-1)">
<circle cx="10.0" cy="10.0" r="1.65" stroke="#000000" stroke-width="0.35 px" style="stroke-width:0.35;stroke-miterlimit:4;stroke-dasharray:none;fill:none"/>
<title>Circle008</title>
</g>
<g id="Circle010" transform="translate(1.8000,81.8000) scale(1,-1)">
<circle cx="150.0" cy="10.0" r="1.65" stroke="#000000" stroke-width="0.35 px" style="stroke-width:0.35;stroke-miterlimit:4;stroke-dasharray:none;fill:none"/>
<title>Circle010</title>
</g>
<g id="Circle011" transform="translate(1.8000,81.8000) scale(1,-1)">
<circle cx="130.0" cy="10.0" r="1.65" stroke="#000000" stroke-width="0.35 px" style="stroke-width:0.35;stroke-miterlimit:4;stroke-dasharray:none;fill:none"/>
<title>Circle011</title>
</g>
<g id="Circle006" transform="translate(1.8000,81.8000) scale(1,-1)">
<circle cx="50.0" cy="10.0" r="1.65" stroke="#000000" stroke-width="0.35 px" style="stroke-width:0.35;stroke-miterlimit:4;stroke-dasharray:none;fill:none"/>
<title>Circle006</title>
</g>
<g id="Circle009" transform="translate(1.8000,81.8000) scale(1,-1)">
<circle cx="170.0" cy="10.0" r="1.65" stroke="#000000" stroke-width="0.35 px" style="stroke-width:0.35;stroke-miterlimit:4;stroke-dasharray:none;fill:none"/>
<title>Circle009</title>
</g>
<g id="Circle024" transform="translate(1.8000,81.8000) scale(1,-1)">
<circle cx="70.0" cy="30.0" r="1.65" stroke="#000000" stroke-width="0.35 px" style="stroke-width:0.35;stroke-miterlimit:4;stroke-dasharray:none;fill:none"/>
<title>Circle024</title>
</g>
<g id="Circle023" transform="translate(1.8000,81.8000) scale(1,-1)">
<circle cx="70.0" cy="50.0" r="1.65" stroke="#000000" stroke-width="0.35 px" style="stroke-width:0.35;stroke-miterlimit:4;stroke-dasharray:none;fill:none"/>
<title>Circle023</title>
</g>
<g id="Circle022" transform="translate(1.8000,81.8000) scale(1,-1)">
<circle cx="90.0" cy="50.0" r="1.65" stroke="#000000" stroke-width="0.35 px" style="stroke-width:0.35;stroke-miterlimit:4;stroke-dasharray:none;fill:none"/>
<title>Circle022</title>
</g>
<g id="Circle012" transform="translate(1.8000,81.8000) scale(1,-1)">
<circle cx="110.0" cy="10.0" r="1.65" stroke="#000000" stroke-width="0.35 px" style="stroke-width:0.35;stroke-miterlimit:4;stroke-dasharray:none;fill:none"/>
<title>Circle012</title>
</g>
<g id="Circle013" transform="translate(1.8000,81.8000) scale(1,-1)">
<circle cx="170.0" cy="70.0" r="1.65" stroke="#000000" stroke-width="0.35 px" style="stroke-width:0.35;stroke-miterlimit:4;stroke-dasharray:none;fill:none"/>
<title>Circle013</title>
</g>
<g id="Circle015" transform="translate(1.8000,81.8000) scale(1,-1)">
<circle cx="130.0" cy="70.0" r="1.65" stroke="#000000" stroke-width="0.35 px" style="stroke-width:0.35;stroke-miterlimit:4;stroke-dasharray:none;fill:none"/>
<title>Circle015</title>
</g>
<g id="Circle016" transform="translate(1.8000,81.8000) scale(1,-1)">
<circle cx="110.0" cy="70.0" r="1.65" stroke="#000000" stroke-width="0.35 px" style="stroke-width:0.35;stroke-miterlimit:4;stroke-dasharray:none;fill:none"/>
<title>Circle016</title>
</g>
<g id="Circle014" transform="translate(1.8000,81.8000) scale(1,-1)">
<circle cx="150.0" cy="70.0" r="1.65" stroke="#000000" stroke-width="0.35 px" style="stroke-width:0.35;stroke-miterlimit:4;stroke-dasharray:none;fill:none"/>
<title>Circle014</title>
</g>
<g id="Circle017" transform="translate(1.8000,81.8000) scale(1,-1)">
<circle cx="90.0" cy="70.0" r="1.65" stroke="#000000" stroke-width="0.35 px" style="stroke-width:0.35;stroke-miterlimit:4;stroke-dasharray:none;fill:none"/>
<title>Circle017</title>
</g>
<g id="Circle018" transform="translate(1.8000,81.8000) scale(1,-1)">
<circle cx="70.0" cy="70.0" r="1.65" stroke="#000000" stroke-width="0.35 px" style="stroke-width:0.35;stroke-miterlimit:4;stroke-dasharray:none;fill:none"/>
<title>Circle018</title>
</g>
<g id="Circle020" transform="translate(1.8000,81.8000) scale(1,-1)">
<circle cx="30.0" cy="70.0" r="1.65" stroke="#000000" stroke-width="0.35 px" style="stroke-width:0.35;stroke-miterlimit:4;stroke-dasharray:none;fill:none"/>
<title>Circle020</title>
</g>
<g id="Circle019" transform="translate(1.8000,81.8000) scale(1,-1)">
<circle cx="50.0" cy="70.0" r="1.65" stroke="#000000" stroke-width="0.35 px" style="stroke-width:0.35;stroke-miterlimit:4;stroke-dasharray:none;fill:none"/>
<title>Circle019</title>
</g>
<g id="Circle021" transform="translate(1.8000,81.8000) scale(1,-1)">
<circle cx="90.0" cy="30.0" r="1.65" stroke="#000000" stroke-width="0.35 px" style="stroke-width:0.35;stroke-miterlimit:4;stroke-dasharray:none;fill:none"/>
<title>Circle021</title>
</g>
<g id="Circle025" transform="translate(1.8000,81.8000) scale(1,-1)">
<circle cx="110.0" cy="50.0" r="1.65" stroke="#000000" stroke-width="0.35 px" style="stroke-width:0.35;stroke-miterlimit:4;stroke-dasharray:none;fill:none"/>
<title>Circle025</title>
</g>
<g id="Circle026" transform="translate(1.8000,81.8000) scale(1,-1)">
<circle cx="110.0" cy="30.0" r="1.65" stroke="#000000" stroke-width="0.35 px" style="stroke-width:0.35;stroke-miterlimit:4;stroke-dasharray:none;fill:none"/>
<title>Circle026</title>
</g>
<g id="Circle028" transform="translate(1.8000,81.8000) scale(1,-1)">
<circle cx="55.5" cy="57.1" r="2.5" stroke="#000000" stroke-width="0.35 px" style="stroke-width:0.35;stroke-miterlimit:4;stroke-dasharray:none;fill:none"/>
<title>Circle028</title>
</g>
<g id="Circle027" transform="translate(1.8000,81.8000) scale(1,-1)">
<circle cx="40.5" cy="57.1" r="2.5" stroke="#000000" stroke-width="0.35 px" style="stroke-width:0.35;stroke-miterlimit:4;stroke-dasharray:none;fill:none"/>
<title>Circle027</title>
</g>
<g id="Circle031" transform="translate(1.8000,81.8000) scale(1,-1)">
<circle cx="124.5" cy="22.9" r="2.5" stroke="#000000" stroke-width="0.35 px" style="stroke-width:0.35;stroke-miterlimit:4;stroke-dasharray:none;fill:none"/>
<title>Circle031</title>
</g>
<g id="Circle030" transform="translate(1.8000,81.8000) scale(1,-1)">
<circle cx="40.5" cy="22.9" r="2.5" stroke="#000000" stroke-width="0.35 px" style="stroke-width:0.35;stroke-miterlimit:4;stroke-dasharray:none;fill:none"/>
<title>Circle030</title>
</g>
<g id="Circle029" transform="translate(1.8000,81.8000) scale(1,-1)">
<circle cx="55.5" cy="22.9" r="2.5" stroke="#000000" stroke-width="0.35 px" style="stroke-width:0.35;stroke-miterlimit:4;stroke-dasharray:none;fill:none"/>
<title>Circle029</title>
</g>
<g id="Circle032" transform="translate(1.8000,81.8000) scale(1,-1)">
<circle cx="139.5" cy="22.9" r="2.5" stroke="#000000" stroke-width="0.35 px" style="stroke-width:0.35;stroke-miterlimit:4;stroke-dasharray:none;fill:none"/>
<title>Circle032</title>
</g>
<g id="Circle033" transform="translate(1.8000,81.8000) scale(1,-1)">
<circle cx="139.5" cy="57.1" r="2.5" stroke="#000000" stroke-width="0.35 px" style="stroke-width:0.35;stroke-miterlimit:4;stroke-dasharray:none;fill:none"/>
<title>Circle033</title>
</g>
<g id="Circle034" transform="translate(1.8000,81.8000) scale(1,-1)">
<circle cx="124.5" cy="57.1" r="2.5" stroke="#000000" stroke-width="0.35 px" style="stroke-width:0.35;stroke-miterlimit:4;stroke-dasharray:none;fill:none"/>
<title>Circle034</title>
</g>
<g id="Circle035" transform="translate(1.8000,81.8000) scale(1,-1)">
<circle cx="10.0" cy="70.0" r="1.65" stroke="#000000" stroke-width="0.35 px" style="stroke-width:0.35;stroke-miterlimit:4;stroke-dasharray:none;fill:none"/>
<title>Circle035</title>
</g>
</svg>