<?xml version="1.0"?>
<!DOCTYPE svg PUBLIC "-//W3C//DTD SVG 1.1//EN" "http://www.w3.org/Graphics/SVG/1.1/DTD/svg11.dtd">
<svg width="57.528mm" height="113.928mm" viewBox="0 0 57.528 113.928" xmlns="http://www.w3.org/2000/svg" version="1.1">
<g id="Line002" transform="translate(0.5640,0.5640) scale(1,-1)">
<path id="Line002_nwe0000" d="M 0.0 -3.0 L 0.0 -109.8 " stroke="#000000" stroke-width="0.35 px" style="stroke-width:0.35;stroke-miterlimit:4;stroke-dasharray:none;fill:none;fill-rule: evenodd "/>
<title>Line002</title>
</g>
<g id="Circle" transform="translate(0.5640,0.5640) scale(1,-1)">
<circle cx="28.2" cy="-84.6" r="19.25" stroke="#000000" stroke-width="0.35 px" style="stroke-width:0.35;stroke-miterlimit:4;stroke-dasharray:none;fill:none"/>
<title>Circle</title>
</g>
<g id="Arc003" transform="translate(0.5640,0.5640) scale(1,-1)">
<path id="Arc003_nwe0000" d="M 3.0 0.0 A 3.0 3.0 0 0 0 0.0 -3.0 " stroke="#000000" stroke-width="0.35 px" style="stroke-width:0.35;stroke-miterlimit:4;stroke-dasharray:none;fill:none;fill-rule: evenodd "/>
<title>Arc003</title>
</g>
<g id="Arc002" transform="translate(0.5640,0.5640) scale(1,-1)">
<path id="Arc002_nwe0000" d="M 0.0 -109.8 A 3.0 3.0 0 0 0 3.0 -112.8 " stroke="#000000" stroke-width="0.35 px" style="stroke-width:0.35;stroke-miterlimit:4;stroke-dasharray:none;fill:none;fill-rule: evenodd "/>
<title>Arc002</title>
</g>
<g id="Arc001" transform="translate(0.5640,0.5640) scale(1,-1)">
<path id="Arc001_nwe0000" d="M 53.4 -112.8 A 3.0 3.0 0 0 0 56.4 -109.8 " stroke="#000000" stroke-width="0.35 px" style="stroke-width:0.35;stroke-miterlimit:4;stroke-dasharray:none;fill:none;fill-rule: evenodd "/>
<title>Arc001</title>
</g>
<g id="Arc" transform="translate(0.5640,0.5640) scale(1,-1)">
<path id="Arc_nwe0000" d="M 56.4 -3.0 A 3.0 3.0 0 0 0 53.4 0.0 " stroke="#000000" stroke-width="0.35 px" style="stroke-width:0.35;stroke-miterlimit:4;stroke-dasharray:none;fill:none;fill-rule: evenodd "/>
<title>Arc</title>
</g>
<g id="Line003" transform="translate(0.5640,0.5640) scale(1,-1)">
<path id="Line003_nwe0000" d="M 53.4 0.0 L 3.0 0.0 " stroke="#000000" stroke-width="0.35 px" style="stroke-width:0.35;stroke-miterlimit:4;stroke-dasharray:none;fill:none;fill-rule: evenodd "/>
<title>Line003</title>
</g>
<g id="Line" transform="translate(0.5640,0.5640) scale(1,-1)">
<path id="Line_nwe0000" d="M 56.4 -109.8 L 56.4 -3.0 " stroke="#000000" stroke-width="0.35 px" style="stroke-width:0.35;stroke-miterlimit:4;stroke-dasharray:none;fill:none;fill-rule: evenodd "/>
<title>Line</title>
</g>
<g id="Line001" transform="translate(0.5640,0.5640) scale(1,-1)">
<path id="Line001_nwe0000" d="M 3.0 -112.8 L 53.4 -112.8 " stroke="#000000" stroke-width="0.35 px" style="stroke-width:0.35;stroke-miterlimit:4;stroke-dasharray:none;fill:none;fill-rule: evenodd "/>
<title>Line001</title>
</g>
<g id="_" transform="translate(0.5640,0.5640) scale(1,-1)">
<title>0</title>
</g>
<g id="Circle002" transform="translate(0.5640,0.5640) scale(1,-1)">
<circle cx="4.58" cy="-108.22" r="2.65" stroke="#000000" stroke-width="0.35 px" style="stroke-width:0.35;stroke-miterlimit:4;stroke-dasharray:none;fill:none"/>
<title>Circle002</title>
</g>
<g id="Circle003" transform="translate(0.5640,0.5640) scale(1,-1)">
<circle cx="4.58" cy="-51.82" r="2.65" stroke="#000000" stroke-width="0.35 px" style="stroke-width:0.35;stroke-miterlimit:4;stroke-dasharray:none;fill:none"/>
<title>Circle003</title>
</g>
<g id="Circle001" transform="translate(0.5640,0.5640) scale(1,-1)">
<circle cx="51.82" cy="-60.98" r="2.65" stroke="#000000" stroke-width="0.35 px" style="stroke-width:0.35;stroke-miterlimit:4;stroke-dasharray:none;fill:none"/>
<title>Circle001</title>
</g>
<g id="Circle004" transform="translate(0.5640,0.5640) scale(1,-1)">
<circle cx="51.82" cy="-51.82" r="2.65" stroke="#000000" stroke-width="0.35 px" style="stroke-width:0.35;stroke-miterlimit:4;stroke-dasharray:none;fill:none"/>
<title>Circle004</title>
</g>
<g id="Circle007" transform="translate(0.5640,0.5640) scale(1,-1)">
<circle cx="28.2" cy="-28.2" r="19.25" stroke="#000000" stroke-width="0.35 px" style="stroke-width:0.35;stroke-miterlimit:4;stroke-dasharray:none;fill:none"/>
<title>Circle007</title>
</g>
<g id="Circle005" transform="translate(0.5640,0.5640) scale(1,-1)">
<circle cx="51.82" cy="-4.58" r="2.65" stroke="#000000" stroke-width="0.35 px" style="stroke-width:0.35;stroke-miterlimit:4;stroke-dasharray:none;fill:none"/>
<title>Circle005</title>
</g>
<g id="Circle006" transform="translate(0.5640,0.5640) scale(1,-1)">
<circle cx="4.58" cy="-4.58" r="2.65" stroke="#000000" stroke-width="0.35 px" style="stroke-width:0.35;stroke-miterlimit:4;stroke-dasharray:none;fill:none"/>
<title>Circle006</title>
</g>
<g id="Circle008" transform="translate(0.5640,0.5640) scale(1,-1)">
<circle cx="51.82" cy="-108.22" r="2.65" stroke="#000000" stroke-width="0.35 px" style="stroke-width:0.35;stroke-miterlimit:4;stroke-dasharray:none;fill:none"/>
<title>Circle008</title>
</g>
<g id="Circle009" transform="translate(0.5640,0.5640) scale(1,-1)">
<circle cx="4.58" cy="-60.98" r="2.65" stroke="#000000" stroke-width="0.35 px" style="stroke-width:0.35;stroke-miterlimit:4;stroke-dasharray:none;fill:none"/>
<title>Circle009</title>
</g>
<g id="Circle010" transform="translate(0.5640,0.5640) scale(1,-1)">
<circle cx="28.2" cy="-84.6" r="14.0" stroke="#000000" stroke-width="0.35 px" style="stroke-width:0.35;stroke-miterlimit:4;stroke-dasharray:none;fill:none"/>
<title>Circle010</title>
</g>
<g id="Circle011" transform="translate(0.5640,0.5640) scale(1,-1)">
<circle cx="28.2" cy="-28.2" r="5.0" stroke="#000000" stroke-width="0.35 px" style="stroke-width:0.35;stroke-miterlimit:4;stroke-dasharray:none;fill:none"/>
<title>Circle011</title>
</g>
</svg>